<?xml version="1.0" encoding="utf-8"?>
<!DOCTYPE svg PUBLIC "-//W3C//DTD SVG 1.1//EN" "http://www.w3.org/Graphics/SVG/1.1/DTD/svg11.dtd">
<svg version="1.1" xmlns="http://www.w3.org/2000/svg" xmlns:xlink="http://www.w3.org/1999/xlink" x="0px" y="0px" viewBox="0 0 1000 1000" enable-background="new 0 0 1000 1000" xml:space="preserve">
    <g><g transform="translate(0.000000,511.000000) scale(0.100000,-0.100000)"><path d="M4553.5,5000.3C2838.7,4820.5,1388.6,3832.9,625.1,2324.2C261.6,1607.2,100,928.5,100,112.6c0-418.1,18.2-610,92.9-979.5c367.6-1835.9,1787.4-3320.4,3613.3-3776.9c1106.8-276.7,2252-163.6,3290.1,325.2c866.4,410,1585.5,1060.3,2098.5,1898.5c1017.9,1664.2,927.1,3837.5-228.2,5410.8C8162.7,4085.3,7033.7,4764,5674.4,4972C5430,5008.3,4789.8,5024.5,4553.5,5000.3z M5506.8,4626.6c2134.8-248.4,3807.1-1949,4013.2-4077.8c242.4-2482.2-1599.6-4718-4085.9-4958.4C2976.1-4649.9,772.6-2862.5,483.7-396.4c-222.2,1892.5,797.8,3744.6,2524.6,4590.8C3781.9,4572.1,4662.5,4725.6,5506.8,4626.6z"/><path d="M3026.6,2578.6c-94.9-44.4-161.6-119.2-191.9-222.2c-14.1-46.5-18.2-323.2-14.1-793.8c6.1-690.7,8.1-723.1,48.5-775.6c68.7-92.9,135.3-131.3,252.5-141.4c181.8-18.2,234.3,24.2,325.2,250.4c175.7,446.4,393.8,583.7,951.3,603.9l276.7,12.1v-1230c0-1327-4-1387.5-109.1-1615.8c-28.3-58.6-88.9-147.4-139.4-193.9c-82.8-80.8-147.4-117.1-444.3-246.4c-127.2-56.6-175.7-127.3-175.7-260.6c0-96.9,78.8-238.3,161.6-286.8c68.7-38.4,103-40.4,1064.4-40.4c971.5,0,993.7,0,1048.2,42.4c92.9,68.7,131.3,135.3,141.4,252.5c18.2,181.8-24.2,234.3-250.4,325.2c-321.1,127.2-460.5,264.6-555.4,541.3c-42.4,129.3-44.4,151.5-50.5,1419.8l-6.1,1286.6h218.1c375.7,0,638.2-82.8,797.8-248.4c80.8-82.8,117.1-147.4,246.4-444.3c56.5-127.3,127.2-175.7,260.5-175.7c96.9,0,238.3,78.8,286.8,161.6c38.4,66.6,40.4,111.1,46.5,777.6c4,389.8,0,735.2-6.1,771.5c-16.2,86.8-101,185.8-202,230.2c-76.7,36.3-181.8,38.4-1989.4,38.4C3202.3,2617,3105.3,2615,3026.6,2578.6z"/></g></g>
</svg>
